<?xml version="1.0" encoding="utf-8"?>
<!-- Generator: Adobe Illustrator 16.2.0, SVG Export Plug-In . SVG Version: 6.00 Build 0)  -->
<!DOCTYPE svg PUBLIC "-//W3C//DTD SVG 1.1//EN" "http://www.w3.org/Graphics/SVG/1.1/DTD/svg11.dtd">
<svg version="1.1" id="Layer_1" xmlns="http://www.w3.org/2000/svg" xmlns:xlink="http://www.w3.org/1999/xlink" x="0px" y="0px"
	 width="160px" height="41px" viewBox="0 0 160 41" enable-background="new 0 0 160 41" xml:space="preserve">
<path fill="#939392" d="M75.1,10.9l2-4.4V10c0,0.3,0,0.5-0.1,0.6c-0.1,0.1-0.2,0.2-0.5,0.2h-0.2v0.1h2.2v-0.1h-0.2
	c-0.2,0-0.4-0.1-0.4-0.2c-0.1-0.1-0.1-0.3-0.1-0.6V6.6c0-0.3,0-0.5,0.1-0.6c0.1-0.1,0.3-0.2,0.5-0.2h0.2V5.7h-1.5l-1.9,4.1l-1.9-4.1
	h-1.5v0.1c0.2,0,0.4,0,0.5,0.1C72.5,6,72.5,6,72.6,6.1c0,0.1,0.1,0.3,0.1,0.5V10c0,0.3,0,0.5-0.1,0.6c-0.1,0.1-0.2,0.2-0.5,0.2h-0.2
	v0.1h1.8v-0.1h-0.2c-0.2,0-0.4-0.1-0.4-0.2C73,10.5,73,10.3,73,10V6.5l2,4.4H75.1z M88.7,9.9c0.1,0.2,0.2,0.4,0.2,0.5
	c0,0.1,0,0.2-0.1,0.2c-0.1,0.1-0.2,0.1-0.4,0.1v0.1h2v-0.1c-0.2,0-0.4-0.1-0.5-0.2c-0.1-0.1-0.3-0.3-0.4-0.7l-1.8-4.3h-0.1l-1.8,4.3
	c-0.2,0.4-0.3,0.6-0.4,0.7c-0.1,0.1-0.2,0.1-0.4,0.1v0.1h1.6v-0.1c-0.3,0-0.4-0.1-0.5-0.1c-0.1-0.1-0.1-0.1-0.1-0.2
	c0-0.1,0-0.3,0.1-0.5l0.4-0.8h2L88.7,9.9z M86.5,8.8l0.9-2.1l0.9,2.1H86.5z M101.2,5.6c0,0.1,0,0.2-0.1,0.3c0,0-0.1,0.1-0.1,0.1
	c-0.1,0-0.1,0-0.3-0.1c-0.2-0.1-0.4-0.2-0.7-0.2c-0.2,0-0.3,0-0.5,0c-0.5,0-1,0.1-1.3,0.3c-0.5,0.3-0.8,0.6-1.1,1.1
	c-0.2,0.4-0.3,0.9-0.3,1.3c0,0.6,0.2,1.2,0.6,1.7c0.5,0.6,1.3,1,2.3,1c0.3,0,0.7,0,1-0.1c0.3-0.1,0.6-0.2,0.9-0.3V8.9
	c0-0.3,0-0.5,0.1-0.6c0.1-0.1,0.2-0.2,0.4-0.2h0.1V8h-2v0.1c0.2,0,0.4,0,0.4,0.1c0.1,0,0.1,0.1,0.2,0.2c0,0.1,0.1,0.3,0.1,0.5v1.5
	c-0.3,0.2-0.7,0.3-1.1,0.3c-0.3,0-0.6-0.1-1-0.3c-0.3-0.2-0.6-0.5-0.8-0.9c-0.2-0.4-0.3-0.9-0.3-1.4c0-0.6,0.1-1.1,0.4-1.6
	c0.3-0.5,0.8-0.8,1.5-0.8c0.5,0,0.9,0.1,1.2,0.4c0.2,0.2,0.4,0.5,0.5,0.9h0.1l-0.1-1.6L101.2,5.6L101.2,5.6z M112.1,9.9
	c0.1,0.2,0.2,0.4,0.2,0.5c0,0.1,0,0.2-0.1,0.2c-0.1,0.1-0.2,0.1-0.4,0.1v0.1h2v-0.1c-0.2,0-0.4-0.1-0.5-0.2
	c-0.1-0.1-0.2-0.3-0.4-0.7l-1.8-4.3H111l-1.8,4.3c-0.2,0.4-0.3,0.6-0.4,0.7c-0.1,0.1-0.2,0.1-0.4,0.1v0.1h1.6v-0.1
	c-0.3,0-0.4-0.1-0.5-0.1c-0.1-0.1-0.1-0.1-0.1-0.2c0-0.1,0-0.3,0.1-0.5l0.4-0.8h2L112.1,9.9L112.1,9.9z M109.9,8.8l0.9-2.1l0.9,2.1
	H109.9L109.9,8.8z M120.6,5.7L120.5,7h0.1c0.1-0.3,0.1-0.5,0.2-0.6c0.1-0.1,0.2-0.2,0.3-0.3c0.1-0.1,0.3-0.1,0.6-0.1h1.7l-3.3,4.7
	v0.1h4.2l0.2-1.4l-0.1,0c-0.1,0.4-0.3,0.7-0.5,0.9c-0.2,0.1-0.4,0.2-0.8,0.2H121l3.4-4.9L120.6,5.7L120.6,5.7z M133,10.7
	c-0.1,0-0.2,0-0.3-0.1c-0.1,0-0.1-0.1-0.2-0.2c0-0.1-0.1-0.3-0.1-0.5V6.6c0-0.3,0-0.5,0.1-0.6c0.1-0.1,0.3-0.2,0.5-0.2h0.2V5.7H131
	v0.1h0.2c0.1,0,0.2,0,0.4,0.1c0.1,0,0.1,0.1,0.2,0.2c0,0.1,0,0.3,0,0.5V10c0,0.3,0,0.5-0.1,0.6c-0.1,0.1-0.3,0.2-0.5,0.2H131v0.1
	h2.2v-0.1L133,10.7L133,10.7z M139.3,5.8c0.2,0,0.3,0,0.3,0c0.1,0.1,0.3,0.1,0.3,0.2c0.1,0.1,0.2,0.2,0.3,0.3V10
	c0,0.3,0,0.5-0.1,0.6c-0.1,0.1-0.3,0.2-0.5,0.2h-0.2v0.1h1.8v-0.1h-0.2c-0.2,0-0.3-0.1-0.4-0.2c-0.1-0.1-0.1-0.3-0.1-0.6V6.8
	l3.4,4.2h0.1V6.6c0-0.3,0-0.5,0.1-0.6c0.1-0.1,0.2-0.2,0.5-0.2h0.2V5.7h-1.8v0.1h0.2c0.2,0,0.4,0.1,0.5,0.2c0.1,0.1,0.1,0.3,0.1,0.6
	v3l-3.2-3.9h-1.4L139.3,5.8L139.3,5.8z M154.2,6c0.3,0,0.4,0,0.5,0.1c0.1,0.1,0.2,0.1,0.3,0.2c0.1,0.1,0.1,0.3,0.2,0.6h0.1l-0.1-1.1
	h-4v0.1h0.2c0.2,0,0.4,0,0.5,0.2c0.1,0.1,0.1,0.3,0.1,0.6V10c0,0.3,0,0.4,0,0.5c0,0.1-0.1,0.1-0.2,0.2c-0.1,0.1-0.2,0.1-0.3,0.1
	h-0.2v0.1h4l0.4-1.3h-0.2c-0.2,0.3-0.3,0.6-0.5,0.7c-0.1,0.1-0.2,0.2-0.4,0.2c-0.1,0-0.3,0.1-0.6,0.1h-0.9c-0.1,0-0.2,0-0.3,0
	c0,0-0.1-0.1-0.1-0.1c0,0,0-0.2,0-0.4V8.3h1.1c0.2,0,0.4,0,0.5,0.1c0.1,0,0.2,0.1,0.2,0.2c0,0.1,0.1,0.2,0.1,0.5h0.1V7.3h-0.1
	c0,0.3-0.1,0.5-0.2,0.6C154.4,8,154.2,8,153.9,8h-1.1V6H154.2L154.2,6z"/>
<linearGradient id="SVGID_1_" gradientUnits="userSpaceOnUse" x1="-177.2192" y1="85.332" x2="-177.2192" y2="109.7969" gradientTransform="matrix(1 0 0 -1 202.3999 121.0996)">
	<stop  offset="0" style="stop-color:#B24B26"/>
	<stop  offset="1" style="stop-color:#D26127"/>
</linearGradient>
<path fill="url(#SVGID_1_)" d="M11.9,11.5c-1.3,0-2.9,0-4.8,0.1c-1.1,0.1-2.7,0.1-4.8,0.2v0.7h1.9c1.2,0,1.8,0.7,1.8,2v18.1
	c0,0.9-0.2,1.5-0.6,1.8c-0.3,0.3-1,0.4-2,0.4H2.9v0.7h10.6V35h-1.3c-1.1,0-1.9-0.2-2.4-0.6c-0.4-0.4-0.7-1.2-0.7-2.3v-6.7
	c1,0.2,2.1,0.3,3.3,0.3c2.6,0,4.7-0.6,6.4-1.7c2-1.3,2.9-3.2,2.9-5.7c0-1.8-0.7-3.4-2-4.6C18.2,12.3,15.6,11.5,11.9,11.5L11.9,11.5z
	 M17.3,21.7c-1.2,2.2-3.2,3.3-6,3.3c-0.5,0-1.2-0.1-2.1-0.3V12.4c0.6-0.1,1.5-0.2,2.6-0.2c4.2,0,6.3,2,6.3,5.9
	C18.2,19.5,17.9,20.6,17.3,21.7L17.3,21.7z M46.4,34.8c-0.8-0.2-1.4-1-1.9-2.2l-8-21.3h-3.3l0.3,0.8l-7,19.1c-0.4,1.2-0.8,2-1.1,2.6
	C25,34.6,24,35,22.4,35v0.7h8.9V35h-0.6c-2.1,0-3.1-0.5-3.1-1.4c0-0.2,0.3-1,0.8-2.4l2.2-6h8l2.6,7c0.3,0.7,0.4,1.3,0.4,1.6
	c0,0.6-0.4,1-1.1,1.2C40,35,39.4,35,38.5,35h-1v0.7H48V35C47.4,35,46.8,35,46.4,34.8L46.4,34.8z M31.2,23.5l3.3-9l3.4,9H31.2
	L31.2,23.5z"/>
<linearGradient id="SVGID_2_" gradientUnits="userSpaceOnUse" x1="-89.938" y1="85.334" x2="-89.938" y2="104.832" gradientTransform="matrix(1 0 0 -1 202.3999 121.0996)">
	<stop  offset="0" style="stop-color:#4C5159"/>
	<stop  offset="1" style="stop-color:#6A6F75"/>
</linearGradient>
<path fill="url(#SVGID_2_)" d="M75.2,24.6c-1.6-1-2.6-1.7-3-2c-1.1-0.9-1.7-1.9-1.7-2.9c0-0.9,0.3-1.6,1-2.1
	c0.6-0.5,1.4-0.7,2.3-0.7c1.1,0,2.1,0.3,2.9,1c0.8,0.6,1.5,1.5,1.9,2.5h0.5l-0.5-3.8h-0.5c-0.1,0.2-0.3,0.3-0.5,0.3
	c-0.2,0-0.6-0.1-1-0.2c-1-0.4-2-0.5-3-0.5c-1,0-1.9,0.2-2.7,0.6c-1.7,0.8-2.6,2.1-2.6,3.8c0,1.2,0.6,2.4,1.6,3.5
	c0.6,0.6,1.7,1.4,3.2,2.4c1.6,1,2.6,1.7,3,2c1.1,1,1.7,2,1.7,3c0,1.1-0.4,2-1.3,2.6c-0.8,0.6-1.7,0.9-2.9,0.9
	c-1.3,0-2.3-0.4-3.3-1.2c-0.9-0.8-1.5-1.8-1.8-3h-0.6l0.6,4.5h0.5c0.1-0.2,0.4-0.3,0.6-0.3c0.1,0,0.4,0.1,1.1,0.2
	c1.4,0.4,2.4,0.6,3.1,0.6c1.6,0,3-0.4,4.2-1.3c1.3-1,1.9-2.2,1.9-3.8c0-1.3-0.5-2.5-1.6-3.6C77.9,26.4,76.8,25.6,75.2,24.6
	L75.2,24.6z M97.2,18.2c-1.2-1.1-3.3-1.7-6.1-1.7c-1,0-2.2,0-3.7,0.1c-0.9,0-2.1,0.1-3.8,0.2v0.6h1.5c0.9,0,1.4,0.5,1.4,1.6V33
	c0,0.7-0.2,1.2-0.5,1.4c-0.3,0.2-0.8,0.3-1.5,0.3h-0.4v0.6h8.3v-0.6h-1c-0.9,0-1.5-0.2-1.9-0.5c-0.3-0.3-0.5-0.9-0.5-1.8v-5.2
	c0.8,0.2,1.6,0.2,2.5,0.2c2,0,3.6-0.4,4.9-1.3c1.5-1,2.3-2.5,2.3-4.4C98.7,20.3,98.2,19.1,97.2,18.2L97.2,18.2z M95.3,24.3
	c-0.9,1.7-2.5,2.5-4.7,2.5c-0.4,0-0.9-0.1-1.6-0.2v-9.5c0.5-0.1,1.2-0.1,2.1-0.1c3.3,0,4.9,1.5,4.9,4.6
	C95.9,22.6,95.7,23.5,95.3,24.3L95.3,24.3z M115.7,32.8l-6.2-16.6h-2.6l0.3,0.7l-5.4,14.8c-0.3,0.9-0.6,1.6-0.9,2
	c-0.4,0.6-1.1,0.9-2.4,1v0.6h6.9v-0.6h-0.5c-1.6,0-2.4-0.4-2.4-1.1c0-0.2,0.2-0.8,0.6-1.9l1.7-4.7h6.2l2,5.4c0.2,0.6,0.3,1,0.3,1.2
	c0,0.5-0.3,0.8-0.9,0.9c-0.3,0.1-0.7,0.1-1.5,0.1h-0.8v0.6h8.2v-0.6c-0.5,0-0.9-0.1-1.3-0.1C116.5,34.4,116.1,33.8,115.7,32.8
	L115.7,32.8z M105.3,25.7l2.5-7l2.6,7H105.3L105.3,25.7z M129.9,35c-2.3,0-4.3-0.9-5.9-2.7c-1.7-1.8-2.5-4-2.5-6.7
	c0-1.7,0.3-3.2,1-4.5c1.4-2.8,3.8-4.1,7.1-4.1c1.1,0,2.1,0.2,3,0.6c1.8,0.8,3.1,2.1,3.8,4h0.6l-0.3-4.3h-0.4
	c-0.1,0.1-0.3,0.2-0.5,0.2c-0.2,0-0.7-0.1-1.4-0.4c-1.6-0.5-3.3-0.8-4.9-0.8c-2,0-3.9,0.4-5.5,1.3c-1.7,0.9-2.9,2-3.8,3.6
	c-0.9,1.5-1.4,3.2-1.4,5.1c0,1.8,0.4,3.4,1.3,4.9c0.9,1.5,2.2,2.7,3.9,3.5c1.6,0.8,3.3,1.1,5.2,1.1c0.7,0,1.4,0,2-0.1
	c1.2-0.2,2.4-0.4,3.6-0.7c0.4,0,0.7,0,1.1,0c0.2-0.3,0.4-0.8,0.7-1.3c0.5-0.9,0.8-1.9,1.2-3h-0.6C135.5,33.6,133.1,35,129.9,35
	L129.9,35z M156.2,30.8c-0.3,0.9-0.5,1.6-0.8,2c-0.5,0.9-1.4,1.3-2.7,1.3h-4.6c-0.6,0-1-0.1-1.3-0.4c-0.2-0.2-0.4-0.7-0.4-1.3v-6.4
	h5c0.8,0,1.3,0.2,1.6,0.6c0.2,0.3,0.4,0.9,0.5,1.7h0.6v-5.7h-0.6c-0.1,0.7-0.2,1.2-0.4,1.6c-0.3,0.5-0.7,0.7-1.4,0.7h-5.3v-7.3h6.3
	c1.2,0,1.9,1,2.2,3.1h0.5l-0.2-4.2H141v0.6h0.7c0.7,0,1.2,0.1,1.5,0.3c0.6,0.3,0.9,1,0.9,2.1v12.6c0,0.6-0.1,1.1-0.2,1.5
	c-0.3,0.7-1.1,1-2.6,1h-0.8v0.6h15.9l0.5-4.4L156.2,30.8L156.2,30.8z"/>
<linearGradient id="SVGID_3_" gradientUnits="userSpaceOnUse" x1="-159.2759" y1="106.2539" x2="-144.2852" y2="106.2539" gradientTransform="matrix(1 0 0 -1 202.3999 121.0996)">
	<stop  offset="0" style="stop-color:#F37C20"/>
	<stop  offset="0.697" style="stop-color:#8E361A"/>
</linearGradient>
<path fill="url(#SVGID_3_)" d="M43.1,12.1c0,0,1.7-0.7,3.6-0.7c1.9,0,6.2,5.2,8.2,5.1c5.2-0.3,2.8,0.4,1.2,1.6
	C53.1,19.3,43.1,12.1,43.1,12.1L43.1,12.1z"/>
<linearGradient id="SVGID_4_" gradientUnits="userSpaceOnUse" x1="-147.0015" y1="97.3086" x2="-135.4609" y2="97.3086" gradientTransform="matrix(1 0 0 -1 202.3999 121.0996)">
	<stop  offset="0" style="stop-color:#853018"/>
	<stop  offset="1" style="stop-color:#AA4A1F"/>
</linearGradient>
<path fill="url(#SVGID_4_)" d="M55.5,36.2c0,0,1.8-13,11.4-23.9c-0.6-1.1-3.2-0.9-4.1-0.4C53.7,26.6,55.5,36.2,55.5,36.2L55.5,36.2z
	"/>
<linearGradient id="SVGID_5_" gradientUnits="userSpaceOnUse" x1="-159.2598" y1="97.3096" x2="-136.5669" y2="97.3096" gradientTransform="matrix(1 0 0 -1 202.3999 121.0996)">
	<stop  offset="0" style="stop-color:#F37C20"/>
	<stop  offset="1" style="stop-color:#701F12"/>
</linearGradient>
<path fill="url(#SVGID_5_)" d="M55.5,36.2c0,0-0.4-2.1-1.6-5.5c-0.7-6.6,6-14.1,6-14.1s-7,8.1-11.5,2.3c-2.2-2.8-2.2-2.8-5.3-6.6
	c3.9-1.5,7.3,4.2,11.8,4.2c4.4,0,7-6.4,10.9-4.8C56.1,24.4,55.5,36.2,55.5,36.2z"/>
<radialGradient id="SVGID_6_" cx="-148.833" cy="113.9316" r="3.9332" gradientTransform="matrix(1 0 0 -1 202.3999 121.0996)" gradientUnits="userSpaceOnUse">
	<stop  offset="0" style="stop-color:#D3D3D3"/>
	<stop  offset="1" style="stop-color:#4E535A"/>
</radialGradient>
<path fill="url(#SVGID_6_)" d="M55.4,4.8c2.2,0,4,1.7,4,3.9c0,2.2-1.7,4-3.9,4c0,0-0.1,0-0.1,0c-2.2,0-3.9-1.8-3.9-3.9
	C51.5,6.6,53.2,4.8,55.4,4.8L55.4,4.8z"/>
<linearGradient id="SVGID_7_" gradientUnits="userSpaceOnUse" x1="21.2969" y1="227.0479" x2="18.7522" y2="231.8521" gradientTransform="matrix(0.8837 0.468 0.468 -0.8837 -68.7487 202.9568)">
	<stop  offset="0" style="stop-color:#FFFFFF;stop-opacity:0.45"/>
	<stop  offset="0.65" style="stop-color:#FFFFFF;stop-opacity:0"/>
</linearGradient>
<path fill="url(#SVGID_7_)" d="M58.1,7.1c1,1.1,1,2.9-0.1,4.2c-1.1,1.2-2.9,1.3-3.9,0.3c-1-1.1,2.4-0.8,3.5-2.1
	C58.7,8.3,57,6.1,58.1,7.1L58.1,7.1z"/>
</svg>
