<svg xmlns="http://www.w3.org/2000/svg" width="184" height="26" viewBox="0 0 184 26"><defs><style>.cls-1,.cls-2{fill:#01000a;fill-rule:evenodd}.cls-2{fill:#0089f4}</style></defs><path id="tr_dersoft" data-name="tr dersoft" class="cls-1" d="M6.779 25.706h1.267v-15.65h5.947V8.9H.831v1.152h5.948v15.65zm11.28 0h1.268v-6.961h5.582l5.435 6.961h1.609l-5.63-7.177c2.876-.384 5-1.992 5-4.8v-.048a4.4 4.4 0 0 0-1.292-3.12 6.783 6.783 0 0 0-4.8-1.656h-7.173v16.8zm1.268-8.089v-7.561h5.825c3.1 0 4.9 1.416 4.9 3.672v.048c0 2.424-2.121 3.84-4.972 3.84h-5.754zm45.892 8.089H70.9c5.362 0 9.067-3.672 9.067-8.4v-.049c0-4.729-3.7-8.353-9.067-8.353h-5.682v16.8zm5.681-15.65c4.753 0 7.751 3.264 7.751 7.249v.048c0 4.008-3 7.2-7.751 7.2h-4.415v-14.5H70.9zm13.358 15.65h12.26v-1.152H85.522v-6.745H95.3v-1.152h-9.778v-6.6h10.871V8.9H84.255v16.8zm16.441 0h1.267v-6.961h5.582l5.435 6.961h1.609l-5.63-7.177c2.876-.384 5-1.992 5-4.8v-.048a4.393 4.393 0 0 0-1.292-3.12 6.78 6.78 0 0 0-4.8-1.656h-7.17v16.8zm1.267-8.089v-7.561h5.826c3.095 0 4.9 1.416 4.9 3.672v.048c0 2.424-2.121 3.84-4.973 3.84h-5.752zm22.1 8.329c3.583 0 6.094-1.872 6.094-5.017v-.047c0-2.784-1.853-4.056-5.46-4.921-3.291-.768-4.071-1.344-4.071-2.64v-.048c0-1.1 1.024-1.992 2.779-1.992a7.822 7.822 0 0 1 4.631 1.728l1.609-2.232a9.55 9.55 0 0 0-6.191-2.112c-3.388 0-5.826 1.992-5.826 4.873v.048c0 3.1 2.048 4.153 5.679 5.017 3.169.72 3.852 1.368 3.852 2.568v.048c0 1.248-1.17 2.112-3.023 2.112a7.964 7.964 0 0 1-5.386-2.184l-1.8 2.112a10.6 10.6 0 0 0 7.112 2.687zm17.745.048a8.677 8.677 0 0 0 8.945-8.689v-.048a8.925 8.925 0 0 0-17.842.048v.048a8.6 8.6 0 0 0 8.896 8.641zm.049-2.736a5.777 5.777 0 0 1-5.8-5.953v-.048a5.717 5.717 0 0 1 5.752-5.929 5.8 5.8 0 0 1 5.8 5.977v.048a5.7 5.7 0 0 1-5.753 5.905zm12.578 2.448h3v-6.841h8.6v-2.688h-8.6v-4.584h9.7V8.9h-12.7v16.8zm20.2 0h3.023V11.641h5.411V8.9h-13.846v2.736h5.411v14.07z"/><path class="cls-2" d="M34 26L48.438 0 63 26H51v-4h5L48.469 8 41 22h5v4H34z"/></svg>